Coordinates
version=1
nRows=12
nColumns=42
inDegrees=yes

Units are S.I. units (second, meters, Newtons, ...)
If the header above contains a line with 'inDegrees', this indicates whether rotational values are in degrees (yes) or radians (no).

endheader
time	pelvis_tilt	pelvis_list	pelvis_rotation	pelvis_tx	pelvis_ty	pelvis_tz	hip_flexion_r	hip_adduction_r	hip_rotation_r	knee_angle_r	knee_adduction_r	knee_angle_r_beta	ankle_angle_r	subtalar_angle_r	mtp_angle_r	hip_flexion_l	hip_adduction_l	hip_rotation_l	knee_angle_l	knee_adduction_l	knee_angle_l_beta	ankle_angle_l	subtalar_angle_l	mtp_angle_l	lumbar_extension	lumbar_bending	lumbar_rotation	arm_flex_r	arm_add_r	arm_rot_r	elbow_flex_r	pro_sup_r	wrist_flex_r	wrist_dev_r	arm_flex_l	arm_add_l	arm_rot_l	elbow_flex_l	pro_sup_l	wrist_flex_l	wrist_dev_l
      0.15000000	     16.97567907	      9.01046050	      3.18569200	     -2.67630117	      0.88032534	      0.03635395	     19.12667597	    -16.66143934	    -39.76279227	     33.80826586	     -9.23683655	      0.59006555	     22.98985674	     30.82143858	     -9.40248751	    -29.65700466	     10.90807107	    -13.84220751	     16.50966133	    -10.22408018	      0.28814795	     33.90718190	     33.34016002	     -9.40248751	    -45.09048091	     -1.35238925	    -13.31377748	      1.40778459	     -9.43020784	      1.35838767	     37.21196800	     90.00000001	      0.00000000	      0.00000000	     24.08937197	    -18.42372719	     -4.57716558	     56.43460973	     90.00000001	      0.00000000	      0.00000000
      0.16000000	     16.62688026	      9.00867809	      3.26259715	     -2.66214528	      0.87866754	      0.03758771	     19.67604846	    -16.52637765	    -39.76367523	     34.37035595	     -9.71070075	      0.59987588	     22.44146909	     30.51051777	     -9.31453053	    -29.71421856	     10.58829383	    -14.47319313	     17.50795498	    -10.45032531	      0.30557146	     33.53324264	     33.73668472	     -9.31453053	    -44.51891249	     -1.27478587	    -13.29932591	      1.43897309	     -9.50614277	      1.34257149	     36.92653544	     90.00000001	      0.00000000	      0.00000000	     24.05663350	    -18.31397094	     -4.72335286	     56.79729875	     90.00000001	      0.00000000	      0.00000000
      0.17000000	     16.32761978	      8.93379865	      3.32319140	     -2.64774317	      0.87731980	      0.03895870	     20.08244215	    -16.32086429	    -39.76312803	     35.27450111	    -10.32811153	      0.61565619	     22.02805433	     30.28012253	     -9.29091632	    -29.75176059	     10.19135666	    -14.90361657	     18.68160271	    -10.67652205	      0.32605548	     32.99162911	     33.71302581	     -9.29091632	    -43.95915437	     -1.15352484	    -13.15327660	      1.37209087	     -9.62715343	      1.31371262	     36.75762819	     90.00000001	      0.00000000	      0.00000000	     23.92962474	    -18.13518174	     -4.78416293	     56.94519875	     90.00000001	      0.00000000	      0.00000000
      0.18000000	     16.09968061	      8.73542538	      3.37906464	     -2.63313477	      0.87637944	      0.04039639	     20.30307068	    -15.98937069	    -39.75713230	     36.41275929	    -11.02555045	      0.63552254	     21.59874183	     29.97294122	     -9.26886607	    -29.77557759	      9.65911478	    -15.25956182	     20.01779961	    -10.92638805	      0.34937651	     32.17699716	     33.71384733	     -9.26886607	    -43.44837465	     -0.89527433	    -12.92956825	      1.36846589	     -9.78374503	      1.27394553	     36.56291915	     90.00000001	      0.00000000	      0.00000000	     23.65327281	    -17.91307315	     -4.90376921	     57.08807520	     90.00000001	      0.00000000	      0.00000000
      0.19000000	     15.96824905	      8.40528332	      3.43405286	     -2.61838974	      0.87593826	      0.04194293	     20.29093555	    -15.50539089	    -39.74670516	     37.66007326	    -11.73946626	      0.65729227	     21.24120460	     29.21318057	     -9.20766015	    -29.79455766	      8.99211444	    -15.59513962	     21.48942245	    -11.24060511	      0.37506118	     30.76044377	     33.80112509	     -9.20766015	    -43.03869542	     -0.49818762	    -12.70189347	      1.51488880	     -9.96717680	      1.20178569	     36.18134109	     90.00000001	      0.00000000	      0.00000000	     23.11818272	    -17.57702983	     -5.43884827	     57.39905826	     90.00000001	      0.00000000	      0.00000000
      0.20000000	     15.96046725	      7.97772015	      3.44869582	     -2.60355631	      0.87597778	      0.04361125	     20.03467217	    -14.95506071	    -39.73444135	     38.98590343	    -12.37179459	      0.68043238	     21.20035849	     28.86232935	     -9.18088131	    -29.80580959	      8.24288286	    -15.81826430	     23.20675665	    -11.57874120	      0.40503431	     29.30396100	     33.45456435	     -9.18088131	    -42.74369055	     -0.01254240	    -12.31698512	      1.61103576	    -10.20298442	      1.14381597	     35.99408661	     90.00000001	      0.00000000	      0.00000000	     22.57774401	    -17.26683784	     -5.67673024	     57.45470749	     90.00000001	      0.00000000	      0.00000000
      0.21000000	     16.02167642	      7.46522728	      3.48611295	     -2.58866057	      0.87654531	      0.04544410	     19.55540737	    -14.28904335	    -39.71431315	     40.23731184	    -12.89317479	      0.70227357	     21.42120483	     27.91174337	     -9.10648047	    -29.81337498	      7.43018972	    -15.51715524	     25.08714424	    -11.81159058	      0.43785327	     27.18875728	     32.33264428	     -9.10648047	    -42.52747014	      0.54650849	    -12.00115628	      1.80978253	    -10.39297177	      1.09066404	     35.74222483	     90.00000001	      0.00000000	      0.00000000	     21.81383887	    -16.86492050	     -6.36177931	     57.63623207	     90.00000001	      0.00000000	      0.00000000
      0.22000000	     16.27863192	      6.80073779	      3.50071379	     -2.57378389	      0.87770725	      0.04743947	     18.65679059	    -13.42694145	    -39.69617362	     41.23520952	    -13.22690121	      0.71969017	     21.83246545	     27.61667237	     -9.08318295	    -29.81456431	      6.41487049	    -15.53963511	     27.23343843	    -12.12988660	      0.47531317	     25.12926196	     31.53312624	     -9.08318295	    -42.52789210	      1.24333016	    -11.50650701	      1.98728078	    -10.69650518	      1.04060621	     35.66114508	     90.00000001	      0.00000000	      0.00000000	     21.11405821	    -16.56613338	     -6.52157127	     57.58485011	     90.00000001	      0.00000000	      0.00000000
      0.23000000	     16.64736825	      6.06164765	      3.51724263	     -2.55897611	      0.87939737	      0.04958311	     17.44579480	    -12.43551673	    -39.67783446	     41.95922757	    -13.37248413	      0.73232667	     22.54336890	     27.16662883	     -9.06046762	    -29.81085949	      5.35152188	    -15.29124734	     29.53303328	    -12.39669941	      0.51544867	     22.66783927	     30.24732625	     -9.06046762	    -42.67380380	      2.00271931	    -10.98374519	      2.20810060	    -10.96978059	      1.01453923	     35.64525961	     90.00000001	      0.00000000	      0.00000000	     20.30064301	    -16.26524151	     -6.72870128	     57.54018675	     90.00000001	      0.00000000	      0.00000000
      0.24000000	     17.02618069	      5.41510576	      3.49808551	     -2.54434745	      0.88150780	      0.05177350	     16.11678488	    -11.54642787	    -39.65612400	     42.51294019	    -13.35567670	      0.74199078	     23.45785490	     26.26944954	     -8.97841775	    -29.80132330	      4.60991978	    -13.75835675	     31.94451012	    -12.33032348	      0.55753688	     19.79720026	     26.36618458	     -8.97841775	    -42.86771623	      2.63987564	    -10.58669796	      2.51635016	    -11.27248598	      1.15708889	     35.73071590	     90.00000001	      0.00000000	      0.00000000	     19.33794777	    -15.90402066	     -7.32390358	     57.63128421	     90.00000001	      0.00000000	      0.00000000
      0.25000000	     17.65727348	      4.60860579	      3.50558138	     -2.52989222	      0.88407656	      0.05403670	     14.24692340	    -10.40604280	    -39.65118367	     42.58260427	    -13.10213487	      0.74320665	     24.25656073	     26.29066312	     -8.96151788	    -29.77596769	      3.50295342	    -13.47601884	     34.46189483	    -12.56123887	      0.60147353	     17.93504658	     25.45958082	     -8.96151788	    -43.33234781	      3.42088199	    -10.01360221	      2.85649439	    -11.56519954	      1.16328320	     35.83180330	     90.00000001	      0.00000000	      0.00000000	     18.52339350	    -15.65875619	     -7.35803202	     57.42272129	     90.00000001	      0.00000000	      0.00000000
      0.26000000	     18.35742788	      3.78236988	      3.46840675	     -2.51568159	      0.88704776	      0.05633038	     12.14604047	     -9.09768383	    -39.66012736	     42.17586385	    -12.87279886	      0.73610769	     25.51269832	     26.19676051	     -8.93720993	    -29.73917693	      2.52247242	    -12.80261945	     36.95462667	    -12.70115824	      0.64497991	     15.81380929	     23.45383280	     -8.93720993	    -43.92560358	      4.20173948	     -9.38502214	      3.21191390	    -11.90551446	      1.24205470	     36.11722503	     90.00000001	      0.00000000	      0.00000000	     17.60111600	    -15.39808139	     -7.42056379	     57.24743731	     90.00000001	      0.00000000	      0.00000000
